<svg width="573" height="562" viewBox="0 0 573 562" fill="none" xmlns="http://www.w3.org/2000/svg">
<path d="M389.383 77.2386C440.39 78.0402 483.042 97.7103 516.597 137.051C517.674 138.241 518.502 139.641 519.032 141.165C519.562 142.689 519.783 144.307 519.681 145.92C519.579 147.533 519.156 149.109 518.438 150.552C517.72 151.995 516.722 153.275 515.504 154.316C514.321 155.339 512.947 156.112 511.465 156.587C509.983 157.063 508.422 157.232 506.875 157.085C505.327 156.938 503.825 156.477 502.455 155.73C501.086 154.984 499.878 153.966 498.902 152.737C486.926 138.37 472.364 126.45 455.996 117.615C430.834 104.04 402.236 98.4567 373.911 101.588C345.586 104.719 318.842 116.421 297.146 135.176C290.976 140.467 285.487 146.62 279.925 152.602C275.067 157.794 268.011 158.62 262.923 154.168C257.834 149.716 257.518 142.279 262.109 136.903C290.211 103.811 325.584 84.2639 368.228 78.2622C371.567 77.7935 374.931 77.4359 378.307 77.2756C381.987 77.1029 385.691 77.2386 389.383 77.2386Z" fill="#2C7250"/>
<path d="M393.597 125.31C425.865 126.161 456.214 140.109 480.078 168.177C484.79 173.702 484.244 180.83 479.01 185.443C474.043 189.784 466.865 189.204 462.238 183.802C449.778 169.152 434.682 158.41 416.271 153.366C378.757 143.081 346.319 152.454 319.115 180.658C318.107 181.706 317.172 182.828 316.213 183.926C314.164 186.327 311.26 187.803 308.14 188.029C305.02 188.256 301.939 187.215 299.575 185.134C297.211 183.054 295.757 180.106 295.534 176.937C295.311 173.769 296.336 170.64 298.385 168.239C308.88 155.592 321.834 145.281 336.433 137.951C353.181 129.478 370.875 125.396 393.597 125.31Z" fill="#2C7250"/>
<path d="M446.693 207.308C446.7 209.732 445.982 212.1 444.636 214.102C443.289 216.103 441.377 217.643 439.152 218.518C436.889 219.423 434.404 219.587 432.045 218.985C429.686 218.384 427.572 217.047 425.999 215.164C421.081 209.314 414.918 204.675 407.977 201.598C388.545 193.261 367.232 198.441 352.816 214.966C349.404 218.888 345.141 220.306 340.21 218.789C338.33 218.208 336.623 217.159 335.243 215.738C333.864 214.316 332.856 212.567 332.312 210.649C331.768 208.731 331.704 206.706 332.127 204.757C332.55 202.808 333.446 200.997 334.733 199.489C359.411 169.275 404.807 164.959 434.5 190.191C437.895 193.061 441.022 196.244 443.839 199.699C445.479 201.721 446.183 204.521 447.313 206.975L446.693 207.308Z" fill="#2C7250"/>
<path d="M389.335 270.252C384.639 270.267 380.045 268.864 376.135 266.222C372.226 263.58 369.178 259.818 367.378 255.413C365.578 251.009 365.108 246.161 366.027 241.484C366.945 236.808 369.212 232.514 372.539 229.148C375.865 225.782 380.102 223.496 384.71 222.58C389.319 221.664 394.091 222.159 398.422 224.002C402.753 225.846 406.447 228.954 409.035 232.934C411.622 236.913 412.987 241.584 412.956 246.352C412.943 252.702 410.448 258.786 406.018 263.268C401.589 267.75 395.588 270.262 389.335 270.252Z" fill="#2C7250"/>
<path d="M247.327 385.455C258.354 374.258 258.354 356.103 247.327 344.906C236.301 333.708 218.423 333.708 207.396 344.906C196.369 356.103 196.369 374.258 207.396 385.455C218.423 396.652 236.301 396.652 247.327 385.455Z" stroke="#263238" stroke-width="2" stroke-linecap="round" stroke-linejoin="round"/>
<path d="M227.364 393.859C235.077 393.859 241.33 381.022 241.33 365.187C241.33 349.351 235.077 336.514 227.364 336.514C219.65 336.514 213.397 349.351 213.397 365.187C213.397 381.022 219.65 393.859 227.364 393.859Z" stroke="#263238" stroke-width="2" stroke-linecap="round" stroke-linejoin="round"/>
<path d="M207.932 344.9C213.225 349.998 220.254 352.818 227.549 352.77C234.843 352.721 241.836 349.808 247.062 344.641" stroke="#263238" stroke-width="2" stroke-linecap="round" stroke-linejoin="round"/>
<path d="M246.868 385.547C241.567 380.397 234.5 377.545 227.164 377.596C219.828 377.647 212.799 380.596 207.568 385.819" stroke="#263238" stroke-width="2" stroke-linecap="round" stroke-linejoin="round"/>
<path d="M199.128 365.187H255.6" stroke="#263238" stroke-width="2" stroke-linecap="round" stroke-linejoin="round"/>
<path d="M227.364 336.514V393.859" stroke="#263238" stroke-width="2" stroke-linecap="round" stroke-linejoin="round"/>
<path d="M227.497 327.45V324.367" stroke="#263238" stroke-linecap="round" stroke-linejoin="round"/>
<path d="M227.497 318.102V8.34991" stroke="#263238" stroke-linecap="round" stroke-linejoin="round" stroke-dasharray="5.07 5.07"/>
<path d="M227.497 5.22992V2.14684" stroke="#263238" stroke-linecap="round" stroke-linejoin="round"/>
<path d="M181.943 160.309C177.293 160.316 172.836 162.196 169.55 165.537C166.264 168.879 164.419 173.408 164.419 178.13C164.419 187.995 181.968 208.085 181.968 208.085C181.968 208.085 199.504 187.971 199.504 178.13C199.506 175.788 199.053 173.469 198.171 171.305C197.288 169.142 195.995 167.176 194.364 165.521C192.732 163.865 190.796 162.553 188.665 161.659C186.533 160.765 184.249 160.306 181.943 160.309ZM181.943 186.207C180.364 186.21 178.82 185.736 177.506 184.847C176.192 183.958 175.167 182.692 174.562 181.211C173.957 179.73 173.798 178.1 174.105 176.527C174.412 174.954 175.173 173.51 176.289 172.376C177.406 171.242 178.829 170.47 180.378 170.158C181.926 169.845 183.532 170.007 184.99 170.622C186.449 171.236 187.695 172.277 188.57 173.611C189.446 174.945 189.913 176.514 189.91 178.117C189.91 180.264 189.071 182.323 187.577 183.842C186.084 185.361 184.057 186.216 181.943 186.22V186.207Z" fill="#263238" stroke="#263238" stroke-linecap="round" stroke-linejoin="round"/>
<path d="M181.943 160.309V157.226" stroke="#263238" stroke-linecap="round" stroke-linejoin="round"/>
<path d="M181.943 151.146V8.26367" stroke="#263238" stroke-linecap="round" stroke-linejoin="round" stroke-dasharray="4.93 4.93"/>
<path d="M181.943 5.22992V2.14684" stroke="#263238" stroke-linecap="round" stroke-linejoin="round"/>
<path d="M140.458 306.485H105.688C102.97 306.485 100.362 307.581 98.4403 309.533C96.518 311.485 95.4381 314.133 95.4381 316.893V332.925C95.4381 335.686 96.518 338.333 98.4403 340.285C100.362 342.237 102.97 343.334 105.688 343.334L106.04 359.489L116.97 343.334H140.482C143.2 343.334 145.808 342.237 147.73 340.285C149.652 338.333 150.732 335.686 150.732 332.925V316.893C150.732 315.524 150.466 314.169 149.949 312.904C149.433 311.64 148.676 310.491 147.721 309.525C146.767 308.558 145.634 307.792 144.388 307.27C143.141 306.748 141.806 306.482 140.458 306.485Z" fill="white" stroke="#263238" stroke-linecap="round" stroke-linejoin="round"/>
<path d="M127.342 315.154H155.918C158.149 315.171 160.285 316.077 161.864 317.678C163.443 319.28 164.339 321.447 164.358 323.713V336.933C164.339 339.199 163.443 341.367 161.864 342.968C160.285 344.569 158.149 345.476 155.918 345.492L155.638 358.762L146.676 345.492H127.342C125.106 345.492 122.963 344.59 121.382 342.985C119.801 341.38 118.913 339.203 118.913 336.933V323.713C118.913 321.443 119.801 319.266 121.382 317.661C122.963 316.056 125.106 315.154 127.342 315.154Z" fill="#263238" stroke="#263238" stroke-linecap="round" stroke-linejoin="round"/>
<path d="M135.879 330.311C135.879 329.679 135.694 329.061 135.348 328.535C135.002 328.01 134.51 327.6 133.935 327.359C133.359 327.118 132.726 327.055 132.116 327.179C131.505 327.303 130.945 327.609 130.505 328.057C130.066 328.505 129.767 329.075 129.647 329.695C129.527 330.316 129.591 330.958 129.831 331.542C130.071 332.125 130.476 332.623 130.995 332.973C131.514 333.322 132.123 333.508 132.746 333.505C133.578 333.502 134.375 333.164 134.962 332.565C135.55 331.967 135.879 331.156 135.879 330.311Z" fill="#2C7250"/>
<path d="M142.474 333.505C144.211 333.505 145.619 332.075 145.619 330.311C145.619 328.547 144.211 327.117 142.474 327.117C140.737 327.117 139.328 328.547 139.328 330.311C139.328 332.075 140.737 333.505 142.474 333.505Z" fill="#2C7250"/>
<path d="M152.202 333.505C153.939 333.505 155.347 332.075 155.347 330.311C155.347 328.547 153.939 327.117 152.202 327.117C150.464 327.117 149.056 328.547 149.056 330.311C149.056 332.075 150.464 333.505 152.202 333.505Z" fill="#2C7250"/>
<path d="M133.463 295.201V292.118" stroke="#263238" stroke-linecap="round" stroke-linejoin="round"/>
<path d="M133.463 286.038V9.37372" stroke="#263238" stroke-linecap="round" stroke-linejoin="round" stroke-dasharray="4.93 4.93"/>
<path d="M133.463 6.32762V3.24453" stroke="#263238" stroke-linecap="round" stroke-linejoin="round"/>
<path d="M120.492 204.607H59.0897V241.049H120.492V204.607Z" fill="white" stroke="#263238" stroke-linecap="round" stroke-linejoin="round"/>
<path d="M59.0897 241.049L89.3174 212.71L120.504 241.049H59.0897Z" fill="white" stroke="#263238" stroke-linecap="round" stroke-linejoin="round"/>
<path d="M59.0897 204.607L89.8031 222.834L120.504 204.607H59.0897Z" fill="white" stroke="#263238" stroke-linecap="round" stroke-linejoin="round"/>
<path d="M89.2566 202.942V199.859" stroke="#263238" stroke-linecap="round" stroke-linejoin="round"/>
<path d="M89.2566 194.075V150.653" stroke="#263238" stroke-linecap="round" stroke-linejoin="round" stroke-dasharray="4.69 4.69"/>
<path d="M89.2566 147.767V144.684" stroke="#263238" stroke-linecap="round" stroke-linejoin="round"/>
<path d="M105.676 92.0498C102.673 85.9309 97.9123 80.8815 92.0231 77.5687C86.1339 74.2558 79.3934 72.8357 72.6925 73.4958C65.9915 74.156 59.6455 76.8654 54.4933 81.2659C49.341 85.6665 45.6249 91.5511 43.8362 98.142C43.3019 98.142 42.7675 98.0556 42.2331 98.0556C37.0553 97.9464 32.0351 99.8672 28.2157 103.419C24.3964 106.971 22.0716 111.881 21.7245 117.128C21.3774 122.375 23.0347 127.556 26.3519 131.595C29.6692 135.634 34.3913 138.219 39.5371 138.814V139.061H101.656C107.568 139.202 113.312 137.051 117.717 133.045C122.123 129.039 124.86 123.479 125.373 117.496C125.885 111.513 124.133 105.557 120.474 100.839C116.815 96.1211 111.524 92.9958 105.676 92.0991V92.0498Z" fill="white" stroke="#263238" stroke-linecap="round" stroke-linejoin="round"/>
<path d="M75.8612 73.3417V70.2586" stroke="#263238" stroke-linecap="round" stroke-linejoin="round"/>
<path d="M75.8612 64.2403V7.09216" stroke="#263238" stroke-linecap="round" stroke-linejoin="round" stroke-dasharray="4.88 4.88"/>
<path d="M75.8612 4.08306V0.999969" stroke="#263238" stroke-linecap="round" stroke-linejoin="round"/>
<path d="M36.3915 293.338C34.9995 293.344 33.6474 293.812 32.5417 294.67L17.2518 283.016C17.5361 282.282 17.6803 281.499 17.6768 280.71C17.6906 279.245 17.2153 277.818 16.3283 276.662C15.4413 275.506 14.195 274.689 12.7924 274.344C11.3897 273.999 9.9134 274.146 8.60391 274.762C7.29443 275.379 6.22896 276.427 5.58106 277.736C4.93316 279.046 4.74102 280.539 5.03594 281.974C5.33086 283.409 6.09546 284.699 7.20519 285.636C8.31491 286.573 9.70436 287.101 11.1472 287.134C12.59 287.166 14.0012 286.702 15.1508 285.816L30.4407 297.457C30.1633 298.198 30.0193 298.984 30.0156 299.776C30.0184 300.564 30.1624 301.346 30.4407 302.082L15.1508 313.724C14.0051 312.843 12.5997 312.38 11.1627 312.412C9.72572 312.444 8.34142 312.967 7.2344 313.898C6.12738 314.829 5.36259 316.113 5.06412 317.54C4.76564 318.968 4.95099 320.456 5.59009 321.764C6.2292 323.071 7.28455 324.121 8.58494 324.743C9.88533 325.364 11.3545 325.522 12.754 325.189C14.1535 324.856 15.4012 324.053 16.2948 322.91C17.1885 321.767 17.6755 320.351 17.6768 318.891C17.6789 318.098 17.5348 317.312 17.2518 316.573L32.5417 304.931C33.3484 305.549 34.2883 305.964 35.284 306.141C36.2796 306.318 37.3024 306.252 38.268 305.949C39.2336 305.645 40.1144 305.113 40.8376 304.396C41.5608 303.679 42.1058 302.798 42.4275 301.825C42.7493 300.852 42.8386 299.815 42.6882 298.8C42.5377 297.785 42.1518 296.821 41.5622 295.987C40.9727 295.153 40.1963 294.474 39.2973 294.005C38.3983 293.536 37.4023 293.29 36.3915 293.289V293.338Z" fill="#263238"/>
<path d="M26.9917 80.8273V77.7442" stroke="#263238" stroke-linecap="round" stroke-linejoin="round"/>
<path d="M26.9917 71.1218V8.22675" stroke="#263238" stroke-linecap="round" stroke-linejoin="round" stroke-dasharray="5.37 5.37"/>
<path d="M26.9917 4.9217V1.83861" stroke="#263238" stroke-linecap="round" stroke-linejoin="round"/>
<path d="M26.9917 279.625V276.542" stroke="#263238" stroke-linecap="round" stroke-linejoin="round"/>
<path d="M26.9917 270.363V149.716" stroke="#263238" stroke-linecap="round" stroke-linejoin="round" stroke-dasharray="5.02 5.02"/>
<path d="M26.9917 146.62V143.537" stroke="#263238" stroke-linecap="round" stroke-linejoin="round"/>
<path d="M92.0256 471.035C100.53 471.035 107.425 452.671 107.425 430.018C107.425 407.365 100.53 389.001 92.0256 389.001C83.5208 389.001 76.6263 407.365 76.6263 430.018C76.6263 452.671 83.5208 471.035 92.0256 471.035Z" fill="#2C7250" stroke="#263238" stroke-miterlimit="10"/>
<path d="M139.872 404.745C144.686 389.361 143.241 375.165 136.645 373.036C130.048 370.907 120.797 381.652 115.983 397.036C111.168 412.42 112.613 426.617 119.21 428.746C125.807 430.875 135.057 420.129 139.872 404.745Z" fill="#2C7250" stroke="#263238" stroke-miterlimit="10"/>
<path d="M26.8824 497.501C11.2038 494.8 -0.564172 486.993 0.589554 480.075C1.74328 473.157 15.3937 469.716 31.0601 472.404C46.7265 475.093 58.5066 482.911 57.3529 489.83C56.1992 496.748 42.5488 500.189 26.8824 497.501Z" fill="#2C7250" stroke="#263238" stroke-miterlimit="10"/>
<path d="M154.375 459.579C141.284 472.762 125.811 478.484 119.824 472.343C113.837 466.201 119.593 450.551 132.685 437.368C145.777 424.185 161.249 418.463 167.236 424.604C173.224 430.746 167.467 446.395 154.375 459.579Z" fill="#2C7250" stroke="#263238" stroke-miterlimit="10"/>
<path d="M64.154 423.408C76.8207 442.067 80.6219 461.724 72.5822 467.323C64.5426 472.922 47.8318 462.353 35.1651 443.67C22.4984 424.986 18.685 405.44 26.7368 399.779C34.7886 394.119 51.4751 404.761 64.154 423.408Z" fill="#2C7250" stroke="#263238" stroke-miterlimit="10"/>
<path d="M93.1063 468.988L94.2965 525.384" stroke="#263238" stroke-miterlimit="10" stroke-linecap="round"/>
<path d="M91.6733 414.763L93.1064 468.988" stroke="#263238" stroke-miterlimit="10" stroke-linecap="round"/>
<path d="M91.7704 405.921L91.6733 410.077" stroke="#263238" stroke-miterlimit="10" stroke-linecap="round"/>
<path d="M72.5215 464.635C81.3571 483.166 86.5271 503.278 87.7385 523.83" stroke="#263238" stroke-miterlimit="10" stroke-linecap="round"/>
<path d="M46.0708 423.568C56.6376 436.009 65.5321 449.818 72.5215 464.635" stroke="#263238" stroke-miterlimit="10" stroke-linecap="round"/>
<path d="M37.7517 414.627C37.7517 414.627 39.3426 416.12 41.9658 418.944" stroke="#263238" stroke-miterlimit="10" stroke-linecap="round"/>
<path d="M120.784 470.456C109.982 485.832 101.561 502.796 95.8146 520.759" stroke="#263238" stroke-miterlimit="10" stroke-linecap="round"/>
<path d="M138.49 449.836C131.971 456.154 126.043 463.074 120.784 470.505" stroke="#263238" stroke-miterlimit="10" stroke-linecap="round"/>
<path d="M157.411 435.136C152.597 437.914 148.076 441.187 143.919 444.903" stroke="#263238" stroke-miterlimit="10" stroke-linecap="round"/>
<path d="M120.128 424.912C111.627 452.179 100.15 492.457 94.8066 527.431" stroke="#263238" stroke-miterlimit="10" stroke-linecap="round"/>
<path d="M125.326 408.745C123.808 413.345 122.047 418.796 120.128 424.912" stroke="#263238" stroke-miterlimit="10" stroke-linecap="round"/>
<path d="M130.657 393.107C130.657 393.107 129.163 397.288 126.759 404.441" stroke="#263238" stroke-miterlimit="10" stroke-linecap="round"/>
<path d="M56.5636 486.056C67.2265 490.163 77.6221 498.08 82.6864 513.076" stroke="#263238" stroke-miterlimit="10" stroke-linecap="round"/>
<path d="M36.9016 481.987C43.627 482.337 50.2628 483.709 56.5878 486.056" stroke="#263238" stroke-miterlimit="10" stroke-linecap="round"/>
<path d="M24.1135 482.308C24.1135 482.308 26.0081 482.036 29.1413 481.913" stroke="#263238" stroke-miterlimit="10" stroke-linecap="round"/>
<path d="M161.018 497.501C176.697 494.8 188.465 486.993 187.311 480.075C186.158 473.157 172.507 469.716 156.829 472.404C141.15 475.093 129.394 482.911 130.548 489.83C131.702 496.748 145.34 500.189 161.018 497.501Z" fill="#2C7250" stroke="#263238" stroke-miterlimit="10"/>
<path d="M131.629 485.933C120.844 489.99 110.279 497.92 105.166 513.064" stroke="#263238" stroke-miterlimit="10" stroke-linecap="round"/>
<path d="M152.675 481.9C145.494 482.107 138.39 483.468 131.629 485.933" stroke="#263238" stroke-miterlimit="10" stroke-linecap="round"/>
<path d="M163.775 482.308C163.775 482.308 162.561 482.135 160.387 481.999" stroke="#263238" stroke-miterlimit="10" stroke-linecap="round"/>
<path d="M131.446 561C136.189 550.915 138.677 539.89 138.733 528.714C138.741 522.025 137.758 515.374 135.818 508.982H53.7946C51.8493 515.373 50.8666 522.025 50.8799 528.714C50.9418 539.889 53.4298 550.913 58.1666 561H131.446Z" fill="#263238"/>
<path d="M51.6815 518.207C51.4508 519.724 51.2686 521.253 51.135 522.819H138.466C138.332 521.253 138.15 519.724 137.92 518.207H51.6815Z" fill="#7A7A7A"/>
<path d="M137.543 541.786C137.81 540.257 138.053 538.715 138.235 537.174H51.3779C51.5601 538.715 51.7908 540.257 52.0702 541.786H137.543Z" fill="#7A7A7A"/>
<path d="M61.4822 528.973C61.4822 529.683 61.2749 530.376 60.8866 530.967C60.4982 531.557 59.9463 532.017 59.3005 532.288C58.6548 532.56 57.9442 532.631 57.2587 532.493C56.5731 532.354 55.9434 532.012 55.4492 531.51C54.9549 531.009 54.6183 530.369 54.482 529.673C54.3456 528.977 54.4156 528.255 54.6831 527.6C54.9506 526.944 55.4035 526.383 55.9847 525.989C56.5659 525.595 57.2491 525.384 57.9481 525.384C58.8844 525.387 59.7814 525.767 60.4435 526.439C61.1056 527.111 61.479 528.022 61.4822 528.973Z" fill="#8C8C8C"/>
<path d="M79.1523 528.973C79.1523 529.683 78.9451 530.376 78.5567 530.967C78.1684 531.557 77.6165 532.017 76.9707 532.288C76.3249 532.56 75.6144 532.631 74.9288 532.493C74.2433 532.354 73.6136 532.012 73.1193 531.51C72.6251 531.009 72.2885 530.369 72.1521 529.673C72.0158 528.977 72.0858 528.255 72.3532 527.6C72.6207 526.944 73.0737 526.383 73.6549 525.989C74.236 525.595 74.9193 525.384 75.6183 525.384C76.5556 525.384 77.4545 525.762 78.1172 526.435C78.78 527.108 79.1523 528.021 79.1523 528.973Z" fill="#8C8C8C"/>
<path d="M96.8225 528.973C96.8225 529.683 96.6152 530.376 96.2269 530.967C95.8386 531.557 95.2866 532.017 94.6409 532.288C93.9951 532.56 93.2845 532.631 92.599 532.493C91.9135 532.354 91.2837 532.012 90.7895 531.51C90.2953 531.009 89.9587 530.369 89.8223 529.673C89.6859 528.977 89.7559 528.255 90.0234 527.6C90.2909 526.944 90.7439 526.383 91.325 525.989C91.9062 525.595 92.5895 525.384 93.2884 525.384C94.2257 525.384 95.1246 525.762 95.7874 526.435C96.4502 527.108 96.8225 528.021 96.8225 528.973Z" fill="#8C8C8C"/>
<path d="M110.959 532.562C112.911 532.562 114.493 530.955 114.493 528.973C114.493 526.991 112.911 525.384 110.959 525.384C109.007 525.384 107.425 526.991 107.425 528.973C107.425 530.955 109.007 532.562 110.959 532.562Z" fill="#8C8C8C"/>
<path d="M132.163 528.973C132.163 529.683 131.956 530.376 131.567 530.967C131.179 531.557 130.627 532.017 129.981 532.288C129.336 532.56 128.625 532.631 127.94 532.493C127.254 532.354 126.624 532.012 126.13 531.51C125.636 531.009 125.299 530.369 125.163 529.673C125.027 528.977 125.096 528.255 125.364 527.6C125.631 526.944 126.084 526.383 126.666 525.989C127.247 525.595 127.93 525.384 128.629 525.384C129.566 525.384 130.465 525.762 131.128 526.435C131.791 527.108 132.163 528.021 132.163 528.973Z" fill="#8C8C8C"/>
<path d="M517.398 279.748C516.173 279.605 514.941 279.959 513.97 280.732C512.999 281.506 512.368 282.636 512.213 283.88L488.677 468.544L504.003 470.295L521.552 284.952C521.668 283.706 521.298 282.462 520.522 281.489C519.745 280.516 518.624 279.891 517.398 279.748Z" fill="#263238" stroke="#263238" stroke-linecap="round" stroke-linejoin="round"/>
<path d="M280.726 279.748C281.952 279.605 283.184 279.959 284.155 280.732C285.126 281.506 285.757 282.636 285.912 283.88L309.472 468.544L294.146 470.295L276.573 284.952C276.457 283.706 276.827 282.462 277.603 281.489C278.38 280.516 279.501 279.891 280.726 279.748Z" fill="#263238" stroke="#263238" stroke-linecap="round" stroke-linejoin="round"/>
<path d="M544.469 464.82H304.894C301.816 464.82 299.32 467.354 299.32 470.48V555.327C299.32 558.453 301.816 560.988 304.894 560.988H544.469C547.547 560.988 550.043 558.453 550.043 555.327V470.48C550.043 467.354 547.547 464.82 544.469 464.82Z" fill="white" stroke="#263238" stroke-linecap="round" stroke-linejoin="round"/>
<path d="M550.286 476.684H299.077C296.28 476.684 294.013 478.986 294.013 481.826V544.006C294.013 546.846 296.28 549.149 299.077 549.149H550.286C553.083 549.149 555.35 546.846 555.35 544.006V481.826C555.35 478.986 553.083 476.684 550.286 476.684Z" fill="white" stroke="#263238" stroke-linecap="round" stroke-linejoin="round"/>
<path d="M412.98 464.82H173.406C170.327 464.82 167.831 467.354 167.831 470.48V555.327C167.831 558.453 170.327 560.988 173.406 560.988H412.98C416.059 560.988 418.554 558.453 418.554 555.327V470.48C418.554 467.354 416.059 464.82 412.98 464.82Z" fill="white" stroke="#263238" stroke-linecap="round" stroke-linejoin="round"/>
<path d="M418.797 476.684H167.589C164.792 476.684 162.524 478.986 162.524 481.826V544.006C162.524 546.846 164.792 549.149 167.589 549.149H418.797C421.594 549.149 423.862 546.846 423.862 544.006V481.826C423.862 478.986 421.594 476.684 418.797 476.684Z" fill="white" stroke="#263238" stroke-linecap="round" stroke-linejoin="round"/>
<path d="M398.042 492.568H190.59C187.23 492.568 184.506 495.334 184.506 498.746V525.335C184.506 528.747 187.23 531.513 190.59 531.513H398.042C401.403 531.513 404.127 528.747 404.127 525.335V498.746C404.127 495.334 401.403 492.568 398.042 492.568Z" fill="#263238" stroke="#263238" stroke-linecap="round" stroke-linejoin="round"/>
<path d="M196.711 502.002C194.52 502.892 192.702 504.527 191.566 506.627C190.43 508.727 190.047 511.163 190.482 513.518C190.918 515.873 192.145 518.001 193.953 519.54C195.762 521.079 198.041 521.932 200.401 521.955C202.76 521.977 205.054 521.167 206.891 519.664C208.728 518.16 209.994 516.055 210.473 513.709C210.952 511.362 210.615 508.92 209.518 506.799C208.421 504.677 206.633 503.008 204.459 502.076" stroke="#2C7250" stroke-width="3" stroke-miterlimit="10" stroke-linecap="round"/>
<path d="M200.597 497.994V505.652" stroke="#2C7250" stroke-width="3" stroke-miterlimit="10" stroke-linecap="round"/>
<path d="M319.467 522.881C319.467 522.881 309.545 526.05 307.444 526.457C305.343 526.864 298.943 525.224 298.688 527.69C298.433 530.157 302.404 532.537 308.635 535.09C314.865 537.642 321.702 539.727 326.341 539.517C330.98 539.307 330.094 530.021 330.349 528.418C330.604 526.815 319.467 522.881 319.467 522.881Z" fill="white" stroke="#263238" stroke-linecap="round" stroke-linejoin="round"/>
<path d="M311.889 532.845C304.129 529.589 300.51 527.912 298.931 527.111C298.787 527.289 298.702 527.509 298.688 527.74C298.494 530.317 302.405 532.586 308.635 535.139C314.865 537.692 321.702 539.776 326.341 539.566C328.078 539.48 329.037 538.136 329.572 536.397C323.501 536.442 317.485 535.234 311.889 532.845Z" fill="white" stroke="#263238" stroke-linecap="round" stroke-linejoin="round"/>
<path d="M379.765 428.316L377.166 429.759V433.594C377.166 433.594 322.965 442.77 322.261 447.567C321.556 452.364 319.407 523.732 319.407 523.732C319.407 523.732 328.151 533.289 330.033 531.131C331.916 528.973 332.401 522.054 332.401 522.054L341.388 458.839C341.388 458.839 402.439 464.536 411.656 461.65C420.874 458.765 425.355 446.309 425.586 440.55C425.817 434.791 425.829 432.151 425.829 432.151L384.234 426.405L379.765 428.316Z" fill="#2C7250" stroke="#263238" stroke-linecap="round" stroke-linejoin="round"/>
<path d="M361.342 525.458L360.953 526.112C358.993 529.291 356.753 532.283 354.262 535.053C350.242 539.369 343.635 542.97 343.866 544.401C344.097 545.831 348.59 546.805 363.941 542.008C370.851 539.85 375.988 539.85 376.692 537.445C377.397 535.04 371.737 524.743 371.737 524.743L361.342 525.458Z" fill="white" stroke="#263238" stroke-linecap="round" stroke-linejoin="round"/>
<path d="M376.692 537.396C376.781 536.235 376.572 535.071 376.085 534.017C370.895 536.523 365.488 538.538 359.933 540.035C354.911 541.447 349.792 542.474 344.619 543.106C344.109 543.611 343.817 544.043 343.866 544.339C344.096 545.782 348.59 546.744 363.941 541.946C370.875 539.862 375.988 539.862 376.692 537.396Z" fill="white" stroke="#263238" stroke-linecap="round" stroke-linejoin="round"/>
<path d="M394.654 438.626C394.654 438.626 388.983 433.594 388.509 436.468C388.035 439.341 387.088 440.069 387.088 440.069C387.088 440.069 347.412 444.903 342.943 447.74C338.474 450.576 337.041 454.461 339.64 460.22C342.238 465.979 359.714 529.059 359.714 529.059C361.535 529.894 363.435 530.535 365.386 530.971C367.985 531.452 373.413 528.812 373.413 528.812C373.413 528.812 372.758 517.06 371.106 513.224C369.454 509.389 362.69 465.128 362.69 465.128C362.69 465.128 391.363 465.239 401.054 465.239C410.746 465.239 421.36 457.087 423.485 450.366C425.61 443.645 424.7 442.215 424.7 442.215" fill="#2C7250"/>
<path d="M394.654 438.626C394.654 438.626 388.983 433.594 388.509 436.468C388.035 439.341 387.088 440.069 387.088 440.069C387.088 440.069 347.412 444.903 342.943 447.74C338.474 450.576 337.041 454.461 339.64 460.22C342.238 465.979 359.714 529.059 359.714 529.059C361.535 529.894 363.435 530.535 365.386 530.971C367.985 531.452 373.413 528.812 373.413 528.812C373.413 528.812 372.758 517.06 371.106 513.224C369.454 509.389 362.69 465.128 362.69 465.128C362.69 465.128 391.363 465.239 401.054 465.239C410.746 465.239 421.36 457.087 423.485 450.366C425.61 443.645 424.7 442.215 424.7 442.215" stroke="#263238" stroke-linecap="round" stroke-linejoin="round"/>
<path d="M362.665 465.141L361.293 457.593" stroke="#263238" stroke-linecap="round" stroke-linejoin="round"/>
<path d="M407.758 449.232C408.518 450.308 409.135 451.481 409.592 452.722" stroke="#263238" stroke-linecap="round" stroke-linejoin="round"/>
<path d="M396.961 440.907C400.457 442.372 403.616 444.556 406.24 447.32" stroke="#263238" stroke-linecap="round" stroke-linejoin="round"/>
<path d="M405.936 442.264C409.589 443.963 412.617 446.796 414.583 450.354" stroke="#263238" stroke-linecap="round" stroke-linejoin="round"/>
<path d="M380.348 369.454C380.348 369.454 380.348 369.799 380.287 370.391C380.081 373.782 376.376 378.826 378.587 385.19C383.602 399.545 382.582 410.089 382.133 407.018C382.837 411.815 378.587 422.125 378.587 425.517C378.587 428.908 369.843 429.377 389.687 435.383C409.531 441.388 416.405 441.117 421.335 439.193C426.266 437.269 429.837 435.592 430.31 431.523C430.784 427.453 426.533 420.251 426.302 414.011C426.072 407.77 425.222 388.248 419.319 375.78C413.417 363.312 397.824 354.667 397.824 354.667L380.348 369.454Z" fill="white" stroke="#263238" stroke-linecap="round" stroke-linejoin="round"/>
<path d="M411.438 416.539C412.47 415.737 413.429 414.923 414.316 414.072" stroke="#263238" stroke-linecap="round" stroke-linejoin="round"/>
<path d="M386.542 430.647C393.857 427.382 400.917 423.556 407.661 419.203" stroke="#263238" stroke-linecap="round" stroke-linejoin="round"/>
<path d="M394.156 429.266C391.35 430.691 388.413 431.836 385.388 432.682" stroke="#263238" stroke-linecap="round" stroke-linejoin="round"/>
<path d="M397.994 427.157C397.994 427.157 397.326 427.576 396.208 428.193" stroke="#263238" stroke-linecap="round" stroke-linejoin="round"/>
<path d="M401.261 395.45L407.636 387.545" stroke="#263238" stroke-linecap="round" stroke-linejoin="round"/>
<path d="M378.162 316.264C376.563 317.959 375.139 319.814 373.911 321.802C372.879 323.873 372.697 325.378 370.936 326.735C369.175 328.091 365.532 327.215 365.629 329.349C365.726 331.482 367.912 333.517 367.912 333.517C367.912 333.517 366.139 346.54 366.807 348.612C367.475 350.684 376.656 351.079 376.656 351.079L381.332 366.543L397.836 355.185L398.273 350.684C398.686 348.859 401.649 343.211 404.102 338.968C406.556 334.726 405.463 323.553 399.536 318.743C393.61 313.934 385.764 314.427 383.348 314.254C380.931 314.082 378.162 316.264 378.162 316.264Z" fill="white" stroke="#263238" stroke-linecap="round" stroke-linejoin="round"/>
<path d="M368.98 336.033C369.76 336.824 370.743 337.375 371.817 337.624C372.891 337.873 374.013 337.809 375.053 337.439" stroke="#263238" stroke-linecap="round" stroke-linejoin="round"/>
<path d="M376 328.202C375.599 329.152 374.968 329.781 374.591 329.62C374.215 329.46 374.239 328.547 374.652 327.598C375.065 326.648 375.684 326.019 376.049 326.18C376.413 326.34 376.401 327.252 376 328.202Z" fill="#263238"/>
<path d="M375.356 323.491C375.356 323.491 378.915 322.776 379.449 326.352" stroke="#263238" stroke-linecap="round" stroke-linejoin="round"/>
<path d="M376.595 351.017L382.315 350.795L378.393 355.654L376.595 351.017Z" fill="#263238" stroke="#263238" stroke-linecap="round" stroke-linejoin="round"/>
<path d="M389.651 344.999L387.173 344.246L385.704 346.59" stroke="#263238" stroke-linecap="round" stroke-linejoin="round"/>
<path d="M388.266 310.542C388.266 310.542 391.837 306.374 387.55 304.376C383.263 302.378 368.677 305.991 370.244 312.491C371.81 318.99 385.424 319.816 386.724 319.89C388.023 319.964 384.125 321.395 385.194 323.368C386.262 325.341 388.837 326.328 388.97 328.461C389.104 330.595 386.542 333.456 387.756 334.701C388.97 335.947 390.914 334.085 392.152 333.604C393.391 333.123 396.779 336.588 394.108 341.003C391.436 345.418 389.638 344.962 389.638 344.962C389.324 345.774 389.273 346.668 389.491 347.512C389.709 348.357 390.186 349.109 390.853 349.66C393.282 351.744 398.14 351.128 399.354 349.105C400.568 347.083 402.669 345.258 407.041 340.892C411.413 336.526 413.49 325.501 410.466 317.892C407.442 310.283 393.731 307.188 388.266 310.542Z" fill="#263238" stroke="#263238" stroke-linecap="round" stroke-linejoin="round"/>
<path d="M397.775 351.042L375.271 367.875L376.559 375.139L401.892 356.184L397.775 351.042Z" fill="white" stroke="#263238" stroke-linecap="round" stroke-linejoin="round"/>
<path d="M341.595 449.195L381.234 440.377L371.968 434.791L334.357 443.312L341.595 449.195Z" fill="white" stroke="#263238" stroke-linecap="round" stroke-linejoin="round"/>
<path d="M323.949 411.001L341.595 449.195L334.357 443.312L316.419 407.474L323.949 411.001Z" fill="#263238" stroke="#263238" stroke-linecap="round" stroke-linejoin="round"/>
<path d="M355.828 432.953L346.695 435.346L341.036 443.67C341.263 443.893 341.534 444.066 341.831 444.177C342.128 444.287 342.445 444.333 342.761 444.311C343.708 444.151 346.222 441.906 346.222 441.906L352.841 440.143C352.841 440.143 349.379 442.227 349.379 442.708C349.379 443.189 350.011 443.349 351.578 443.189C353.144 443.029 356.933 439.489 356.933 439.489L359.459 436.283L355.828 432.953Z" fill="white" stroke="#263238" stroke-linecap="round" stroke-linejoin="round"/>
<path d="M380.506 391.307L375.83 412.962L355.828 432.953L360.552 437.43L377.166 429.759L378.32 426.713L382.327 408.572L380.506 391.307Z" fill="white" stroke="#263238" stroke-linecap="round" stroke-linejoin="round"/>
<path d="M350.29 428.587C350.29 428.587 343.914 429.549 341.558 429.549C339.202 429.549 333.531 430.03 332.584 430.511C331.636 430.992 327.143 433.866 327.386 436.024C327.629 438.182 331.636 436.27 331.636 436.27C332.47 438.211 333.499 440.059 334.709 441.783C336.591 444.422 337.539 443.46 341.315 442.03C345.092 440.599 350.764 436.27 350.764 436.27L354.079 433.15L350.29 428.587Z" fill="white" stroke="#263238" stroke-linecap="round" stroke-linejoin="round"/>
<path d="M405.754 361.154C405.754 361.154 396.039 359.711 392.529 364.508C388.497 370.295 385.829 376.944 384.732 383.944C384.016 390.172 379.534 402.652 379.534 402.652L349.501 428.045L354.699 435.95C354.699 435.95 391.132 418.685 392.055 417.525C392.978 416.366 405.038 384.66 405.038 384.66" fill="white"/>
<path d="M405.754 361.154C405.754 361.154 396.039 359.711 392.529 364.508C388.497 370.295 385.829 376.944 384.732 383.944C384.016 390.172 379.534 402.652 379.534 402.652L349.501 428.045L354.699 435.95C354.699 435.95 391.132 418.685 392.055 417.525C392.978 416.366 405.038 384.66 405.038 384.66" stroke="#263238" stroke-linecap="round" stroke-linejoin="round"/>
<path d="M13.22 561H572" stroke="#263238" stroke-linecap="round" stroke-linejoin="round"/>
</svg>
