<svg width="70" height="70" viewBox="0 0 70 70" fill="none" xmlns="http://www.w3.org/2000/svg">
<path d="M61.1634 37.9167C61.1575 41.8355 60.2755 45.7033 58.5821 49.2362C56.8887 52.7691 54.4269 55.8776 51.3773 58.3334H18.5238C15.0697 55.5518 12.3764 51.9386 10.6956 47.8315C9.01474 43.7244 8.40135 39.2575 8.91272 34.8485C9.4241 30.4396 11.0435 26.2324 13.6196 22.6204C16.1958 19.0085 19.6444 16.1096 23.6432 14.195C27.6419 12.2803 32.0602 11.4123 36.485 11.6721C40.9097 11.9319 45.1964 13.3111 48.9443 15.6806C52.6922 18.0502 55.7789 21.3328 57.9158 25.2215C60.0528 29.1102 61.1701 33.4781 61.1634 37.9167V37.9167Z" stroke="#2C7250" stroke-width="4" stroke-linecap="round" stroke-linejoin="round"/>
<path d="M46.6007 26.25L34.9505 43.75M37.8631 43.75C37.8631 44.3269 37.6922 44.8908 37.3722 45.3704C37.0522 45.8501 36.5973 46.2239 36.0651 46.4446C35.5329 46.6654 34.9473 46.7232 34.3823 46.6106C33.8173 46.4981 33.2984 46.2203 32.891 45.8124C32.4837 45.4045 32.2063 44.8848 32.0939 44.319C31.9815 43.7532 32.0392 43.1668 32.2597 42.6338C32.4801 42.1009 32.8534 41.6454 33.3324 41.3249C33.8114 41.0044 34.3745 40.8333 34.9505 40.8333C35.723 40.8333 36.4638 41.1406 37.01 41.6876C37.5562 42.2346 37.8631 42.9765 37.8631 43.75Z" stroke="#2C7250" stroke-width="4" stroke-linecap="round" stroke-linejoin="round"/>
</svg>
