<svg width="71" height="70" viewBox="0 0 71 70" fill="none" xmlns="http://www.w3.org/2000/svg">
<path d="M59.9071 59.7917C59.3661 60.3341 58.7237 60.7643 58.0166 61.0579C57.3094 61.3514 56.5514 61.5025 55.7859 61.5025C55.0204 61.5025 54.2624 61.3514 53.5552 61.0579C52.8481 60.7643 52.2056 60.3341 51.6646 59.7917L36.4903 44.5959C32.4817 46.6381 27.8843 47.2059 23.5004 46.2C19.6149 45.2935 16.1148 43.1809 13.4996 40.1639C10.8844 37.147 9.28777 33.3797 8.93765 29.4C8.61184 25.9155 9.26769 22.4093 10.8308 19.2792L23.5004 32.0834L30.7817 30.625L32.238 23.3334L19.4519 10.7334C22.569 9.1379 26.0706 8.45073 29.5584 8.75002C33.5325 9.10064 37.2944 10.6995 40.3072 13.3184C43.3199 15.9374 45.4294 19.4424 46.3347 23.3334C47.311 27.6865 46.7447 32.2442 44.7328 36.225L59.9071 51.4209C60.4664 51.9646 60.911 52.6152 61.2147 53.3341C61.5183 54.053 61.6747 54.8257 61.6747 55.6063C61.6747 56.3869 61.5183 57.1595 61.2147 57.8784C60.911 58.5974 60.4664 59.248 59.9071 59.7917V59.7917Z" stroke="#2C7250" stroke-width="4" stroke-linecap="round" stroke-linejoin="round"/>
</svg>
